<svg width="20" height="24" viewBox="0 0 20 24" fill="none" xmlns="http://www.w3.org/2000/svg">
<path d="M3.20368 6.73218H1.2C1.08954 6.73218 1 6.82172 1 6.93218V22.7736C1 22.8841 1.08954 22.9736 1.2 22.9736H18.9522C19.0626 22.9736 19.1522 22.8841 19.1522 22.7736V6.93218C19.1522 6.82172 19.0626 6.73218 18.9522 6.73218H16.5" stroke="#E6E6E6" stroke-width="1.5" stroke-linecap="round"/>
<path d="M5.2998 7.68764V5.26435C5.2998 4.35675 5.59418 3.47364 6.13874 2.74756L6.24028 2.61217C6.56422 2.18024 6.98428 1.82967 7.46718 1.58822V1.58822C7.61438 1.51463 7.76651 1.4516 7.92263 1.39956C8.06978 1.35051 8.25867 1.28755 8.40478 1.23884C8.41674 1.23486 8.42898 1.23078 8.44146 1.22662C8.89169 1.07654 9.36326 1 9.83785 1V1C10.3124 1 10.7839 1.07651 11.2341 1.22659L11.6788 1.37482C11.8843 1.44331 12.0847 1.52631 12.2784 1.62317L12.3386 1.65326C12.7388 1.85336 13.1041 2.11668 13.4205 2.43307L13.5905 2.60307C13.7943 2.80686 13.9639 3.04217 14.0928 3.29996V3.29996C14.279 3.67229 14.3759 4.08286 14.3759 4.49914V7.68764" stroke="#E6E6E6" stroke-width="1.5" stroke-linecap="round"/>
<path d="M7.20996 6.73218H12.5601" stroke="#E6E6E6" stroke-width="1.5" stroke-linecap="round"/>
</svg>
