<svg width="8" height="15" viewBox="0 0 8 15" fill="none" xmlns="http://www.w3.org/2000/svg">
<path d="M4.11312 3.67739C0.699094 0.273776 0.414027 1.80246e-08 0.312217 1.35923e-08C0.156108 6.79615e-09 -6.82372e-09 0.155478 -1.36474e-08 0.310956C-1.80977e-08 0.412354 0.264706 0.68613 3.5362 3.9444L7.07579 7.4697L3.5362 10.995C0.264705 14.2533 -6.37573e-07 14.527 -6.42023e-07 14.6284C-6.48847e-07 14.7839 0.156108 14.9394 0.312216 14.9394C0.414026 14.9394 0.699094 14.6656 4.11312 11.262C7.6018 7.79079 7.80542 7.58123 7.80542 7.4697C7.80542 7.35816 7.6018 7.1486 4.11312 3.67739Z" fill="#E6E6E6"/>
</svg>
