<svg width="114" height="77" viewBox="0 0 114 77" fill="none" xmlns="http://www.w3.org/2000/svg">
<path d="M26.1273 0.445869C24.7693 1.26959 24.3685 2.85026 25.17 4.16377C26.0605 5.65539 24.4131 5.56634 51.1953 5.56634H75.4842L75.5287 18.3007L75.5955 31.0574L76.1298 31.8143C76.4192 32.215 77.0648 32.7493 77.5769 32.972C78.4229 33.3504 79.2688 33.395 90.1331 33.395H101.799L105.116 36.4227L108.433 39.4282V50.671V61.9137L105.405 61.8469L102.378 61.7802L101.888 60.4221C99.9511 55.0568 94.0292 51.7173 88.5079 52.8305C87.5284 53.0308 86.1036 53.5206 85.3466 53.8768C82.6973 55.1903 80.1816 58.0623 79.3356 60.7115L78.9572 61.8915L69.629 61.8469L60.3009 61.7802L59.7665 60.3553C57.7406 54.99 51.93 51.7173 46.4311 52.8305C45.4515 53.0308 44.0267 53.5206 43.2697 53.8768C40.6205 55.1903 38.1047 58.0623 37.2588 60.6893L36.8803 61.8915H32.027C26.5726 61.8915 25.9269 62.0251 25.17 63.2718C24.5912 64.2291 24.6134 65.2086 25.2368 66.1437C26.0828 67.3904 26.3499 67.4572 31.8934 67.4572H36.9248L37.2142 68.2809C38.4832 72.266 41.7781 75.2715 45.9413 76.251C50.7055 77.3865 55.7815 75.3605 58.5421 71.2196C59.0319 70.485 59.6107 69.3273 59.8333 68.6594L60.2118 67.4572H69.5845H78.9794L79.4469 68.7262C81.4506 74.2029 87.1499 77.4087 92.9828 76.3401C96.4558 75.7167 99.8398 73.112 101.376 69.8839C101.843 68.9488 102.2 68.0138 102.2 67.8134C102.2 67.5017 102.667 67.4572 106.719 67.4572C110.949 67.4572 111.261 67.4127 112.107 66.9452C112.685 66.6335 113.175 66.1214 113.509 65.4535L113.999 64.474V51.1385C113.999 38.5154 113.977 37.7808 113.576 37.0016C113.331 36.534 111.506 34.6417 109.346 32.638C107.231 30.7011 105.383 28.8979 105.205 28.6307C105.049 28.3858 103.647 24.7124 102.088 20.5047C100.552 16.2971 99.016 12.3343 98.7044 11.7109C97.8806 10.0857 95.6989 8.01525 93.9624 7.16927C91.9142 6.21196 90.4671 6.0116 85.4579 6.0116H81.0499V4.69808C81.0499 3.11742 80.7382 2.09332 79.959 1.24733C78.7568 -0.0661774 80.1816 0.000610352 52.3975 0.000610352C27.4408 0.000610352 26.8175 0.0228729 26.1273 0.445869ZM90.9123 11.889C92.1145 12.3343 93.2277 13.2693 93.7397 14.2489C94.0959 14.9613 98.8602 27.5176 98.8602 27.7624C98.8602 27.807 94.8529 27.8292 89.955 27.8292H81.0499V19.7033V11.5773H85.5692C88.7306 11.5996 90.3112 11.6886 90.9123 11.889ZM51.3289 58.7969C51.8855 59.0641 52.776 59.7542 53.3103 60.3553C56.8724 64.3181 54.4012 70.5295 49.0804 70.9747C44.7168 71.3087 41.1993 67.101 42.4015 62.9601C43.5369 59.0418 47.7001 57.1049 51.3289 58.7969ZM93.3835 58.7969C93.9401 59.0418 94.8306 59.732 95.3649 60.3108C98.9492 64.14 96.5449 70.485 91.2908 70.9525C87.0386 71.3532 83.5211 67.4795 84.3893 63.3831C85.2353 59.2867 89.6434 57.0382 93.3835 58.7969Z" fill="#F95D04"/>
<path d="M14.1281 16.0076C13.2599 16.5419 12.8369 17.566 12.9927 18.7237C13.1263 19.7701 13.6384 20.4157 14.6402 20.8387C15.7311 21.3062 47.0995 21.2839 48.2126 20.8387C49.6597 20.2153 50.3054 18.2785 49.5262 16.9204C48.6802 15.5179 49.5707 15.5846 31.3596 15.5846C15.5752 15.5846 14.796 15.6069 14.1281 16.0076Z" fill="#F95D04"/>
<path d="M1.32744 31.4582C-0.453593 32.6381 -0.431331 34.8199 1.32744 35.9998L2.08438 36.5118L25.1933 36.4673L48.3244 36.4005L49.0146 35.7104C49.5266 35.1983 49.727 34.7531 49.816 34.0407C49.9274 32.8607 49.5711 32.126 48.5693 31.4582L47.8124 30.9461H24.9484H2.08438L1.32744 31.4582Z" fill="#F95D04"/>
<path d="M9.43081 46.5523C7.85015 47.0198 7.11547 48.979 7.91694 50.5374C8.60709 51.8731 8.56256 51.8731 19.9389 51.8731C31.3375 51.8731 31.1149 51.8954 31.9386 50.5374C32.7401 49.1348 32.0277 47.1089 30.5138 46.5968C29.5565 46.2852 10.544 46.2406 9.43081 46.5523Z" fill="#F95D04"/>
</svg>
