<svg width="20" height="30" viewBox="0 0 20 30" fill="none" xmlns="http://www.w3.org/2000/svg">
<path d="M12.8918 21.5744L18.48 13.5864C18.4983 13.5605 18.5136 13.5334 18.5255 13.5052C19.4905 12.1063 20 10.5082 20 8.87668C20 3.98208 15.5206 0 10.0147 0C4.50884 0 0.0290721 3.98208 0.0290721 8.87668C0.0290721 10.5085 0.539332 12.1073 1.50506 13.5072C1.51624 13.5317 1.52929 13.5556 1.54494 13.5788L6.93267 21.5943C2.75033 22.1198 0 23.6486 0 25.5031C0 27.801 4.39255 29.6005 9.99981 29.6005C15.6071 29.6005 19.9996 27.8007 19.9996 25.5031C20 23.64 17.1215 22.077 12.8918 21.5744ZM2.50881 13.0595C1.61799 11.7991 1.14724 10.3528 1.14724 8.87668C1.14724 4.53012 5.12496 0.994029 10.0147 0.994029C14.9041 0.994029 18.8818 4.53012 18.8818 8.87668C18.8818 10.3535 18.4111 11.7998 17.5206 13.0595C17.502 13.0861 17.4867 13.1136 17.4744 13.1421L11.5705 21.5804C11.4818 21.7013 11.4642 21.7288 11.3558 21.8872L9.86489 24.0184L2.55875 13.149C2.54571 13.1182 2.52893 13.088 2.50881 13.0595ZM10.0002 28.6065C4.76602 28.6065 1.11854 26.9706 1.11854 25.5031C1.11854 24.1711 3.86552 22.916 7.56033 22.5273L9.3755 25.2281C9.47576 25.3769 9.65542 25.4687 9.85035 25.47C9.85184 25.47 9.85371 25.47 9.8552 25.47C10.0483 25.47 10.2279 25.3812 10.33 25.2354L12.2384 22.5078C15.9921 22.8693 18.8815 24.1562 18.8815 25.5031C18.8818 26.971 15.2343 28.6065 10.0002 28.6065Z" fill="#F95D04"/>
<path d="M13.6306 8.87654C13.6306 7.09689 12.0017 5.64893 9.99985 5.64893C7.99795 5.64893 6.36914 7.09689 6.36914 8.87654C6.36914 10.6562 7.99795 12.1041 9.99985 12.1041C12.0017 12.1041 13.6306 10.6562 13.6306 8.87654ZM7.48731 8.87654C7.48731 7.64493 8.61443 6.64295 9.99985 6.64295C11.3853 6.64295 12.5124 7.64493 12.5124 8.87654C12.5124 10.1081 11.3856 11.1101 9.99985 11.1101C8.61406 11.1101 7.48731 10.1081 7.48731 8.87654Z" fill="#F95D04"/>
</svg>
