<svg width="28" height="23" viewBox="0 0 28 23" fill="none" xmlns="http://www.w3.org/2000/svg">
<path d="M6.292 0.162924C3.90264 0.536701 1.93235 1.95082 0.850255 4.06266C-0.119252 5.95647 -0.269369 8.31126 0.449942 10.3608C1.65088 13.7746 5.3225 17.6495 10.8893 21.381C12.378 22.3777 12.672 22.4961 13.6415 22.4961C14.5547 22.4961 14.9112 22.359 16.0934 21.5803C21.7979 17.8177 25.6071 13.8369 26.833 10.3608C27.4085 8.72241 27.4335 6.85353 26.8956 5.17776C25.8948 2.03181 22.8987 -0.0551128 19.6462 0.119318C18.2451 0.194073 17.0817 0.586538 15.862 1.39639C15.2615 1.78885 14.2795 2.69215 13.8416 3.24658L13.6415 3.49577L13.4413 3.24658C13.0348 2.72953 12.009 1.78263 11.4585 1.42131C10.5641 0.823263 9.71968 0.461946 8.73766 0.250139C8.19974 0.131777 6.81116 0.0881691 6.292 0.162924ZM8.21851 1.75148C9.3006 1.93836 10.4015 2.46788 11.2709 3.22167C11.715 3.60167 12.3342 4.33054 12.722 4.92858C13.0848 5.48924 13.2599 5.65121 13.5602 5.68236C13.9167 5.72597 14.1294 5.55777 14.6485 4.79153C15.7306 3.21544 17.1004 2.21247 18.758 1.80131C19.396 1.63934 20.7158 1.65803 21.3725 1.83246C23.4617 2.3869 25.0191 4.00037 25.5696 6.18073C25.6509 6.5109 25.6759 6.87222 25.6759 7.73191C25.6759 8.77848 25.6634 8.89061 25.5007 9.4139C24.9441 11.2205 23.8182 12.9274 21.8354 14.952C20.1466 16.6714 17.9636 18.4531 15.518 20.0977C13.7603 21.2751 13.5101 21.2751 11.6712 20.0292C9.22554 18.3783 7.14267 16.6839 5.44759 14.952C3.29591 12.7592 2.15127 10.9588 1.68841 9.04013C1.52578 8.36733 1.52578 7.13386 1.68841 6.36139C1.93235 5.18399 2.42023 4.24332 3.2146 3.42101C4.55315 2.03181 6.36081 1.42754 8.21851 1.75148Z" fill="#E6E6E6"/>
</svg>
