<svg width="95" height="28" viewBox="0 0 95 28" fill="none" xmlns="http://www.w3.org/2000/svg">
<path d="M19.5466 27.9999C23.5424 27.9999 26.7816 24.6132 26.7816 20.4355C26.7816 16.2578 23.5424 12.8711 19.5466 12.8711C15.5508 12.8711 12.3115 16.2578 12.3115 20.4355C12.3115 24.6132 15.5508 27.9999 19.5466 27.9999Z" fill="#E6E6E6"/>
<path d="M5.94589 23.9567C7.80586 23.9567 9.31365 22.3802 9.31365 20.4356C9.31365 18.491 7.80586 16.9146 5.94589 16.9146C4.08592 16.9146 2.57812 18.491 2.57812 20.4356C2.57812 22.3802 4.08592 23.9567 5.94589 23.9567Z" fill="#E6E6E6"/>
<path d="M19.5455 11.0853C22.1174 11.0853 24.2024 8.90548 24.2024 6.21649C24.2024 3.52751 22.1174 1.34766 19.5455 1.34766C16.9736 1.34766 14.8887 3.52751 14.8887 6.21649C14.8887 8.90548 16.9736 11.0853 19.5455 11.0853Z" fill="#E6E6E6"/>
<path d="M5.94596 12.4332C9.22982 12.4332 11.8919 9.64995 11.8919 6.21661C11.8919 2.78327 9.22982 0 5.94596 0C2.6621 0 0 2.78327 0 6.21661C0 9.64995 2.6621 12.4332 5.94596 12.4332Z" fill="#E6E6E6"/>
<path d="M45.5909 23.9158H49.3467L42.3911 4.11426H39.6669L32.71 23.9164H36.4661L37.7945 20.1366H44.2625L45.5909 23.9164L38.8406 17.1567L41.0288 10.93L43.2158 17.1567H38.8406L45.5909 23.9158ZM58.6572 10.3969L55.2008 20.2336L51.7461 10.3969H48.2172L52.9681 23.9158H57.4342L62.1845 10.3969H58.6566M63.6615 10.3969H67.1904V23.9158H63.6615V10.3969Z" fill="#E6E6E6"/>
<path d="M65.4371 8.86175C66.6919 8.86175 67.7091 7.79822 67.7091 6.48629C67.7091 5.17437 66.6919 4.11084 65.4371 4.11084C64.1823 4.11084 63.165 5.17437 63.165 6.48629C63.165 7.79822 64.1823 8.86175 65.4371 8.86175Z" fill="#E6E6E6"/>
<path d="M79.6493 13.376V10.3968H75.422V6.66748H71.8954V10.3968H69.1045V13.376H71.8954V19.1924C71.8954 22.1925 73.3302 24.195 76.9938 24.195C78.4086 24.195 79.6493 23.6518 79.6493 23.6518L79.2207 20.7329C79.2207 20.7329 78.5262 20.9499 77.6722 20.9499C76.6254 20.9499 75.422 20.4781 75.422 18.9653V13.3757L79.6493 13.376ZM87.7416 20.8255C85.7741 20.8255 84.1798 19.1947 84.1798 17.1832C84.1798 15.1733 85.7741 13.5421 87.741 13.5421C89.7091 13.5421 91.3027 15.1736 91.3027 17.1835C91.3027 19.195 89.7091 20.8255 87.7416 20.8255ZM87.7416 10.0517C83.9169 10.0517 80.815 13.2241 80.815 17.1343C80.815 21.0462 83.9169 24.2169 87.7413 24.2169C91.5641 24.2169 94.666 21.0462 94.666 17.1343C94.666 13.2241 91.5641 10.0517 87.741 10.0517" fill="#E6E6E6"/>
</svg>
