<svg width="30" height="30" viewBox="0 0 30 30" fill="none" xmlns="http://www.w3.org/2000/svg">
<path d="M15.1094 29.1048C22.902 29.1048 29.2188 22.8135 29.2188 15.0524C29.2188 7.29126 22.902 1 15.1094 1C7.31678 1 1 7.29126 1 15.0524C1 22.8135 7.31678 29.1048 15.1094 29.1048Z" stroke="#E6E6E6" stroke-width="1.5" stroke-linecap="round" stroke-linejoin="round"/>
<path fill-rule="evenodd" clip-rule="evenodd" d="M23.8106 10.9696C23.8108 10.9696 23.811 10.9694 23.8111 10.9692C23.937 10.5595 23.8108 10.2578 23.2072 10.2578H21.2134C20.7395 10.2578 20.5042 10.4851 20.3718 10.7493C20.3532 10.7866 20.3374 10.8245 20.3207 10.8627C20.1579 11.2342 19.201 13.3468 17.895 14.7641C17.4302 15.216 17.219 15.3594 16.9653 15.3594C16.8385 15.3594 16.6479 15.216 16.6479 14.8053V10.9696C16.6479 10.477 16.5081 10.2578 16.0858 10.2578H12.9505C12.6337 10.2578 12.4431 10.4861 12.4431 10.703C12.4431 11.1693 13.1616 11.2774 13.2353 12.5898V15.4413C13.2353 16.0667 13.1191 16.18 12.8654 16.18C12.1894 16.18 10.545 13.7693 9.56903 11.0109C9.37991 10.474 9.18851 10.2578 8.67886 10.2578H6.68358C6.11393 10.2578 6 10.5183 6 10.8059C6 11.3179 6.67598 13.8616 9.14825 17.2259C10.7964 19.5233 13.1168 20.7689 15.2306 20.7689C16.4982 20.7689 16.6547 20.4926 16.6547 20.0158V18.2793C16.6547 17.7259 16.7747 17.6156 17.1765 17.6156C17.4727 17.6156 17.9793 17.7597 19.1627 18.8671C20.5146 20.1803 20.7372 20.7689 21.4982 20.7689H23.492C24.0616 20.7689 24.3472 20.4926 24.1832 19.946C24.0024 19.4024 23.3568 18.6134 22.5008 17.6771C22.036 17.1441 21.3387 16.5697 21.1268 16.2822C20.8832 15.9783 20.8978 15.8132 21.0286 15.5807C21.0899 15.4719 21.1633 15.3712 21.2362 15.2698C21.7123 14.6078 23.5892 11.9545 23.8101 10.9699C23.8102 10.9697 23.8104 10.9696 23.8106 10.9696Z" fill="#E6E6E6"/>
</svg>
