<svg width="23" height="14" viewBox="0 0 23 14" fill="none" xmlns="http://www.w3.org/2000/svg">
<path d="M22.9789 13.7401C22.9915 13.7039 23 13.6658 23 13.6256V0.373902C23 0.333494 22.9915 0.295081 22.9787 0.258664C22.9768 0.253675 22.9757 0.248686 22.9736 0.243697C22.9565 0.201044 22.9314 0.162631 22.8999 0.128958C22.8978 0.126713 22.8975 0.123969 22.8954 0.121724C22.8941 0.120477 22.8925 0.119978 22.8911 0.118731C22.8575 0.0853065 22.8178 0.0583676 22.7732 0.0381634C22.7697 0.0366668 22.7671 0.0346712 22.7636 0.0331746C22.7215 0.0154648 22.6756 0.00548761 22.6273 0.0024944C22.6225 0.00224497 22.6179 0.00124696 22.6131 0.00124696C22.6086 0.000997528 22.6046 0 22.6001 0H0.400476C0.39594 0 0.391671 0.000997528 0.387135 0.00124696C0.382866 0.0014964 0.378597 0.00224497 0.374328 0.0024944C0.325503 0.00548761 0.278812 0.0157144 0.236123 0.0336737C0.233455 0.0346714 0.231321 0.0364173 0.228653 0.0374151C0.183296 0.0576192 0.143008 0.0850569 0.109124 0.11898C0.10779 0.120227 0.106189 0.120477 0.104855 0.121724C0.10272 0.12372 0.102453 0.126463 0.100319 0.128708C0.0688359 0.162382 0.0434893 0.201044 0.0264138 0.243697C0.0242793 0.248686 0.0232121 0.253675 0.0213444 0.258913C0.00853777 0.29533 0 0.333743 0 0.374151V13.6261C0 13.667 0.00880453 13.7059 0.021878 13.7428C0.0237457 13.7478 0.0248129 13.7526 0.0266806 13.7575C0.0440229 13.8005 0.0696362 13.8391 0.101386 13.8728C0.103254 13.8748 0.103787 13.8773 0.105655 13.8793C0.107256 13.881 0.10939 13.882 0.111258 13.8838C0.124331 13.8965 0.138739 13.9077 0.15368 13.9187C0.16035 13.9234 0.16622 13.9292 0.173157 13.9337C0.190766 13.9451 0.209709 13.9544 0.229186 13.9628C0.233989 13.9648 0.238258 13.9681 0.24306 13.9698C0.291352 13.989 0.344446 14 0.400209 14H22.5995C22.6553 14 22.7084 13.9893 22.7567 13.9698C22.7641 13.9668 22.7711 13.9623 22.7783 13.9588C22.7948 13.9511 22.8114 13.9431 22.8266 13.9334C22.8346 13.9282 22.8418 13.9214 22.8495 13.9157C22.8631 13.9055 22.8765 13.8952 22.8882 13.8835C22.8903 13.8815 22.8927 13.88 22.8949 13.878C22.897 13.8758 22.8975 13.8728 22.8997 13.8705C22.9309 13.8371 22.956 13.7987 22.9731 13.7563C22.9757 13.7508 22.9771 13.7456 22.9789 13.7401ZM0.800684 1.22248L7.53673 6.97468L0.800684 12.7728V1.22248ZM14.6068 6.69282C14.5791 6.70978 14.5497 6.724 14.5265 6.74795C14.5177 6.75693 14.5148 6.76865 14.507 6.77813L11.5001 9.34581L1.43195 0.748054H21.5683L14.6068 6.69282ZM8.13011 7.48128L11.2301 10.1285C11.3067 10.1939 11.4033 10.2266 11.5001 10.2266C11.597 10.2266 11.6936 10.1939 11.7699 10.1285L14.8315 7.51421L21.5665 13.2517H1.42608L8.13011 7.48128ZM15.4251 7.00736L22.1996 1.22248V12.7788L15.4251 7.00736Z" fill="#484B52"/>
</svg>
