<svg width="19" height="18" viewBox="0 0 19 18" fill="none" xmlns="http://www.w3.org/2000/svg">
<path d="M6.71808 0.0830307C4.43682 0.349987 2.49622 1.42893 1.2613 3.12522C-0.776632 5.91713 -0.302129 9.66008 2.37455 11.9459C3.7859 13.1528 5.55616 13.7868 7.50284 13.7868C9.19401 13.7868 10.6784 13.3418 11.9924 12.4464L12.4669 12.1183L13.1056 12.6911C13.4585 13.0026 14.6751 14.1038 15.8127 15.1382C18.0575 17.1682 18.0514 17.1682 18.3677 16.8735C18.4712 16.7845 18.5198 16.6788 18.5198 16.5564C18.5198 16.3896 18.2765 16.156 15.8431 13.9258L13.1725 11.4787L13.2942 11.3397C14.1155 10.4053 14.7177 9.19847 14.9367 8.05834C15.0462 7.47994 15.034 6.19521 14.9002 5.63905C14.2615 2.86382 12.0958 0.839407 9.0906 0.210947C8.58568 0.105278 7.1865 0.0274162 6.71808 0.0830307ZM9.12101 1.18423C9.79018 1.33995 10.6419 1.69589 11.2319 2.05739C11.749 2.3744 12.5885 3.15859 12.9475 3.65913C13.641 4.63241 13.9573 5.54451 13.9999 6.75137C14.0668 8.47546 13.4828 9.87142 12.1749 11.1005C10.9156 12.2851 9.34001 12.8969 7.53934 12.8969C4.97824 12.8969 2.78214 11.64 1.65672 9.53216C-0.235212 5.96719 2.14339 1.78488 6.47475 1.07299C7.18042 0.9562 8.37276 1.00625 9.12101 1.18423Z" fill="#979797"/>
</svg>
