<svg width="25" height="22" viewBox="0 0 25 22" fill="none" xmlns="http://www.w3.org/2000/svg">
<path fill-rule="evenodd" clip-rule="evenodd" d="M22.3612 0.282725C21.877 0.446418 16.9683 2.08727 11.4531 3.92905C5.93782 5.77078 1.26673 7.33561 1.07288 7.40638C0.633467 7.56675 0.327501 7.8315 0.144067 8.21017C-0.0401977 8.59051 -0.0488068 9.16669 0.124599 9.51009C0.266796 9.79161 0.540626 10.0857 0.774491 10.2081C0.873839 10.2601 2.1591 10.8378 3.63057 11.4918C5.10205 12.1458 6.31344 12.6885 6.32259 12.6978C6.33169 12.707 6.71284 14.4723 7.16957 16.6205C7.62629 18.7687 8.03953 20.608 8.08786 20.7079C8.27579 21.0962 8.71911 21.2232 9.10511 20.9992C9.21272 20.9367 10.2297 20.179 11.365 19.3152L13.4291 17.7447L15.8163 19.7251C17.1292 20.8143 18.3105 21.7649 18.4413 21.8374C18.7563 22.012 19.1847 22.0487 19.5726 21.9344C19.9683 21.8178 20.4208 21.3648 20.5408 20.9651C20.5859 20.8151 21.6162 16.4079 22.8304 11.1713C25.2536 0.720497 25.1254 1.36996 24.8662 0.853692C24.6031 0.329388 24.1623 0.0374582 23.5841 0.00458071C23.2699 -0.0132713 23.1691 0.00968844 22.3612 0.282725ZM23.5361 1.61305C23.5173 1.68808 22.5242 5.96537 21.3291 11.1182C20.134 16.271 19.1455 20.4977 19.1326 20.5109C19.1195 20.524 19.0703 20.5008 19.023 20.4594C18.9758 20.418 17.2862 19.0164 15.2685 17.3447C13.2507 15.6731 11.5823 14.2899 11.561 14.271C11.5396 14.252 13.2456 12.4114 15.3519 10.1806C17.4583 7.94987 19.2311 6.04402 19.2915 5.94539C19.3638 5.82742 19.4014 5.68782 19.4016 5.53697C19.4018 5.34154 19.3743 5.27633 19.2151 5.09449C19.0408 4.89539 19.009 4.87987 18.7382 4.86212L18.448 4.84307L12.6919 8.08773L6.9358 11.3323L4.19115 10.1155C2.68156 9.44617 1.46449 8.88031 1.48651 8.858C1.5297 8.81421 23.3934 1.48898 23.5038 1.48129C23.5524 1.47792 23.5611 1.51337 23.5361 1.61305ZM14.7059 8.68771C14.7059 8.69901 13.6137 9.865 12.2787 11.2787C10.9438 12.6925 9.82167 13.9161 9.78513 13.9979C9.74859 14.0797 9.52788 14.8273 9.29465 15.6591C9.06142 16.491 8.85593 17.1886 8.83798 17.2095C8.80858 17.2436 7.84636 12.8314 7.83716 12.6201C7.83423 12.5531 8.66535 12.0623 11.2574 10.6005C13.1406 9.53841 14.687 8.66886 14.6937 8.66822C14.7004 8.66762 14.7059 8.67635 14.7059 8.68771ZM11.6158 16.2424C11.9475 16.5164 12.2185 16.7557 12.218 16.7742C12.2167 16.8266 10.085 18.4351 10.0706 18.3945C10.0636 18.3747 10.191 17.8905 10.3538 17.3187C10.8811 15.4658 10.8374 15.5907 10.9306 15.6723C10.9758 15.7118 11.2842 15.9684 11.6158 16.2424Z" fill="#F95D04"/>
</svg>
