<svg width="276" height="272" viewBox="0 0 276 272" fill="none" xmlns="http://www.w3.org/2000/svg">
<path fill-rule="evenodd" clip-rule="evenodd" d="M138.31 272L138.003 271.544L137.69 272V271.094L0 70.0135L137.69 0.312421V0L138.003 0.156211L138.31 0V0.312421L276 70.0135L138.31 271.094V272ZM138.931 87.7778L37.2138 65.4834L53.9587 81.6356C53.9587 81.6356 129.007 76.6556 138.931 129.199C143.896 76.037 225.765 81.6356 225.765 81.6356L242.51 65.4834L138.931 87.7778ZM70.8855 89.9898C63.7511 89.015 58.9239 89.015 58.9239 89.015L66.5535 96.4069L70.8855 89.9898ZM71.0296 100.743L77.537 91.0895C79.6121 91.4956 81.7938 91.983 84.0319 92.5641L75.5434 105.123L71.0296 100.743ZM129.358 130.486C130.286 133.048 131.044 135.628 131.678 138.159L117.785 158.716C117.578 156.011 117.196 152.905 116.506 149.568L129.358 130.486ZM118.462 168.764L118.004 168.42V181.504L134.411 157.229C134.248 154.18 133.941 150.574 133.351 146.657L118.462 168.764ZM134.586 167.851L118.004 192.483V204.879L134.586 180.342V167.851ZM118.004 228.074V215.895L134.586 191.27V203.53L118.004 228.074ZM121.992 233.06L127.377 238.071L134.586 227.393V214.358L121.992 233.06ZM134.586 244.794L131.903 242.289L134.586 238.302V244.794ZM126.505 123.781C125.408 121.569 124.167 119.414 122.757 117.345L111.278 134.397C112.519 136.865 113.535 139.334 114.368 141.745L126.505 123.781ZM113.303 106.811C115.246 108.473 117.077 110.285 118.769 112.265L107.817 128.468C106.544 126.562 105.109 124.681 103.491 122.838C103.31 122.625 103.121 122.413 102.933 122.207L113.303 106.811ZM108.406 103.099C106.576 101.855 104.683 100.725 102.752 99.6998L93.3918 113.596C95.0405 114.777 96.7583 116.146 98.5074 117.745L108.406 103.099ZM90.207 94.3824C92.5078 95.1447 94.8399 96.0132 97.1533 97.013L88.1507 110.335C85.5365 108.935 83.2294 108.035 81.3988 107.46L90.207 94.3824ZM218.944 89.015C218.944 89.015 214.111 89.015 206.976 89.9898L211.315 96.4069L218.944 89.015ZM200.331 91.0895L206.832 100.743L202.318 105.123L193.83 92.5641C196.068 91.983 198.25 91.4956 200.331 91.0895ZM146.191 138.159C146.818 135.628 147.576 133.048 148.504 130.486L161.356 149.568C160.666 152.905 160.284 156.011 160.077 158.716L146.191 138.159ZM159.857 168.42L159.4 168.764L144.511 146.657C143.921 150.574 143.614 154.18 143.451 157.229L159.857 181.504V168.42ZM159.857 192.483L143.275 167.851V180.342L159.857 204.879V192.483ZM159.857 215.895V228.074L143.275 203.53V191.27L159.857 215.895ZM150.485 238.077L155.87 233.06L143.275 214.358V227.393L150.485 238.077ZM145.959 242.289L143.275 244.794V238.302L145.959 242.289ZM155.105 117.352C153.695 119.414 152.454 121.569 151.356 123.781L163.5 141.745C164.327 139.334 165.343 136.865 166.584 134.397L155.105 117.352ZM159.093 112.265C160.785 110.285 162.616 108.473 164.559 106.811L174.929 122.207C174.74 122.419 174.552 122.625 174.371 122.838C172.759 124.681 171.324 126.562 170.045 128.468L159.093 112.265ZM175.11 99.6998C173.186 100.725 171.286 101.855 169.456 103.099L179.355 117.745C181.104 116.146 182.821 114.777 184.476 113.596L175.11 99.6998ZM180.709 97.013C183.022 96.0132 185.354 95.1447 187.655 94.3824L196.463 107.46C194.633 108.035 192.325 108.935 189.711 110.335L180.709 97.013Z" fill="#F8F9FA"/>
</svg>
