<svg width="15" height="14" viewBox="0 0 15 14" fill="none" xmlns="http://www.w3.org/2000/svg">
<path d="M14.9968 10.6203C14.9631 9.61409 14.6639 8.40187 14.1548 7.20706C13.6456 6.01112 12.9842 4.96807 12.2923 4.27008C11.5482 3.51932 10.8364 3.24443 10.2855 3.49331C10.2811 3.49518 10.2764 3.49593 10.272 3.49799L9.62573 3.80058V2.21148C9.62573 2.20924 9.62609 2.20699 9.62609 2.20475C9.62609 0.947805 7.55706 0 4.81322 0C2.0751 0 0.00928293 0.944062 0.000714023 2.19707C0.000714023 2.19969 0 2.20213 0 2.20493V5.04554C0 5.06051 0.00196374 5.07511 0.00428448 5.08933C0.00196374 5.10374 0 5.11814 0 5.13312C0 5.15875 0.00214228 5.18383 0.00392747 5.20909C0.00196376 5.22256 0 5.23585 0 5.24988V8.09049C0 8.10565 0.00196374 8.12024 0.00428448 8.13465C0.00196374 8.14906 0 8.16366 0 8.17881C0 8.21081 0.00232065 8.24244 0.00481991 8.27388C0.00178509 8.29034 0 8.30737 0 8.32477V11.1654C0 11.1804 0.00196374 11.1949 0.00428448 11.2092C0.00196374 11.2236 0 11.238 0 11.253C0 12.5097 2.06939 13.4573 4.81358 13.4573C6.55682 13.4573 8.14546 13.0404 8.98164 12.3813C9.72999 13.3997 10.5351 14 11.2094 14C11.3631 14 11.5104 13.9689 11.6482 13.9044L14.1894 12.7144C14.1919 12.7133 14.1946 12.7126 14.1971 12.7114C14.7496 12.453 15.0336 11.7103 14.9968 10.6203ZM7.79859 4.65613L7.72147 4.69168C7.19074 4.94037 6.9226 5.62601 6.91368 6.56521C6.27279 6.7121 5.55443 6.79313 4.81376 6.79313C2.28272 6.79313 0.518954 5.91831 0.518954 5.13293C0.518954 5.11796 0.51699 5.10336 0.51467 5.08914C0.51699 5.07473 0.518954 5.06032 0.518954 5.04535V3.23152C1.29872 3.94317 2.88968 4.40949 4.8134 4.40949C6.73659 4.40949 8.32701 3.94354 9.10714 3.23208V4.04347L7.79859 4.65613ZM0.51467 8.13465C0.51699 8.12024 0.518954 8.10565 0.518954 8.09049V6.1597C1.29908 6.87098 2.89004 7.33711 4.81376 7.33711C5.55604 7.33711 6.28279 7.26245 6.93635 7.1206C6.99615 7.8113 7.17271 8.60079 7.46673 9.43501C6.67982 9.70204 5.78954 9.83883 4.81376 9.83883C2.28272 9.83883 0.518954 8.96401 0.518954 8.179C0.518954 8.16366 0.51699 8.14906 0.51467 8.13465ZM4.8134 0.543795C7.34176 0.543795 9.1041 1.4175 9.10732 2.20269C9.10732 2.20344 9.10714 2.204 9.10714 2.20475V2.2098C9.09964 2.99405 7.33855 3.8657 4.8134 3.8657C2.28272 3.8657 0.519311 2.99031 0.519311 2.20475C0.519311 1.41918 2.28272 0.543795 4.8134 0.543795ZM4.81376 12.9137C2.28272 12.9137 0.518954 12.0385 0.518954 11.2531C0.518954 11.2382 0.51699 11.2236 0.51467 11.2094C0.51699 11.1949 0.518954 11.1805 0.518954 11.1656V9.2054C1.29908 9.91668 2.89004 10.3826 4.81376 10.3826C5.85667 10.3826 6.81103 10.2331 7.65738 9.94138C7.69148 10.0265 7.72665 10.112 7.76325 10.1977C8.04066 10.8486 8.35254 11.4333 8.68048 11.941C7.94926 12.5281 6.43828 12.9137 4.81376 12.9137ZM11.5077 13.3739L11.4343 13.4092C10.749 13.7281 9.26887 12.3972 8.23686 9.97581C7.20591 7.55362 7.24947 5.50849 7.93213 5.18869L9.59253 4.41155C9.49863 4.73659 9.45668 5.13199 9.47221 5.58952C9.50595 6.59552 9.80514 7.80811 10.3145 9.00405C10.8236 10.1994 11.485 11.2419 12.1769 11.9399C12.4924 12.2578 12.8012 12.4873 13.0952 12.631L11.5077 13.3739ZM13.9866 12.2144C13.9862 12.2146 13.9857 12.2146 13.9853 12.2148L13.9836 12.2155C13.6419 12.3739 13.1142 12.1308 12.5367 11.5481C11.8917 10.8974 11.2706 9.91518 10.7882 8.7823C10.3055 7.64887 10.0222 6.50832 9.99063 5.57043C9.96242 4.72873 10.1424 4.15462 10.4844 3.99481C10.5535 3.96263 10.6297 3.94672 10.7126 3.94672C11.041 3.94672 11.4705 4.19579 11.9326 4.66174C12.5775 5.31238 13.1984 6.29499 13.681 7.42862C14.1637 8.56112 14.4468 9.70148 14.4784 10.6394C14.5068 11.4799 14.3274 12.0539 13.9866 12.2144Z" fill="#F95D04"/>
</svg>
