<svg width="14" height="14" viewBox="0 0 14 14" fill="none" xmlns="http://www.w3.org/2000/svg">
<g clip-path="url(#clip0_250_2279)">
<path d="M1.22477 0.604301C0.710709 0.680864 0.275944 1.04454 0.0763344 1.575L0.0134437 1.73633L0.00524061 6.64454C-0.00296251 12.0148 -0.00843126 11.7606 0.152897 12.1488C0.338834 12.5891 0.702506 12.9828 1.12087 13.1906C1.59938 13.4313 1.14548 13.4121 6.72634 13.4121C11.3174 13.4121 11.6756 13.4094 11.8451 13.3656C12.4685 13.2043 12.9771 12.7832 13.2369 12.2063C13.3927 11.8617 13.4037 11.7688 13.4174 10.768L13.431 9.84922L13.4939 9.83282C13.6033 9.80547 13.8275 9.57579 13.9095 9.41172L13.9861 9.25586V8.16211C13.9861 7.10391 13.9834 7.06563 13.9287 6.94258C13.8494 6.77579 13.7017 6.61172 13.5513 6.53243L13.4283 6.46954L13.4174 4.38868C13.4064 2.10821 13.4119 2.18204 13.2369 1.79375C12.9799 1.22501 12.4822 0.806645 11.8588 0.637115C11.7029 0.593364 11.3009 0.587895 6.53493 0.585161C3.69938 0.582427 1.30954 0.59063 1.22477 0.604301ZM11.7439 1.2168C12.1295 1.31797 12.4904 1.60782 12.6681 1.96329C12.8076 2.24219 12.8267 2.37344 12.8185 2.97501L12.8103 3.5L12.6599 3.37696C12.4931 3.2375 12.1513 3.05704 11.9216 2.98594C11.7822 2.94493 11.3556 2.93946 6.52126 2.92579L1.27126 2.91211L1.11813 2.84102C0.776334 2.67969 0.590397 2.39532 0.590397 2.03165C0.590397 1.86211 0.601334 1.8129 0.683366 1.65157C0.751725 1.51485 0.81735 1.43555 0.915788 1.36172C1.17555 1.16485 0.727116 1.18126 6.42555 1.17852C10.9728 1.17579 11.6017 1.18126 11.7439 1.2168ZM0.72985 3.3086C0.800944 3.35508 0.90485 3.4043 0.959538 3.41797C1.22204 3.48907 1.92477 3.5 6.61696 3.5C11.9463 3.5 11.6783 3.49454 12.0064 3.6504C12.3892 3.83086 12.6736 4.18086 12.7857 4.60743C12.8131 4.70586 12.824 4.9711 12.824 5.5836V6.42579H11.8341C10.7131 6.42579 10.631 6.43672 10.281 6.61719C10.0103 6.75938 9.79977 6.95079 9.62751 7.20782C9.43337 7.49766 9.34587 7.78204 9.34313 8.13477C9.3404 8.46563 9.37595 8.63516 9.52087 8.94141C9.72321 9.36524 10.1498 9.71797 10.6365 9.8629C10.7595 9.89844 10.9701 9.90938 11.8068 9.91758L12.824 9.93126V10.757C12.824 11.4106 12.8158 11.6156 12.783 11.7441C12.6545 12.2391 12.2388 12.6547 11.7439 12.7832C11.6017 12.8188 10.9974 12.8242 6.71266 12.8242C2.48805 12.8242 1.8236 12.8188 1.68688 12.7832C1.2029 12.6574 0.811881 12.291 0.647819 11.8152L0.587663 11.6348L0.579459 7.4293C0.576725 5.11876 0.579459 3.22657 0.584928 3.22657C0.593131 3.22657 0.658756 3.26485 0.72985 3.3086ZM13.2642 7.04376C13.4174 7.12032 13.4256 7.18047 13.4256 8.16211C13.4256 9.12461 13.4174 9.19297 13.2806 9.28321C13.2205 9.32149 13.081 9.32422 11.9982 9.31876L10.7841 9.31055L10.5791 9.20938C10.3248 9.0836 10.147 8.90313 10.0267 8.6461C9.94469 8.47383 9.93923 8.44376 9.93923 8.16211C9.93923 7.87501 9.94469 7.8504 10.0322 7.66993C10.1881 7.35821 10.456 7.12852 10.7732 7.04376C11.0029 6.98086 13.1466 6.98086 13.2642 7.04376Z" fill="#E6E6E6"/>
<path d="M2.18201 1.79648C2.02889 1.89219 2.00155 2.11641 2.13006 2.24492L2.20936 2.32422H6.6828C9.91756 2.32422 11.1726 2.31602 11.2219 2.29414C11.3859 2.21758 11.416 1.96055 11.2765 1.8293L11.2055 1.76367L6.73201 1.7582C2.59764 1.75273 2.25037 1.75547 2.18201 1.79648Z" fill="#E6E6E6"/>
<path d="M11.1124 7.32815C10.9757 7.3719 10.7706 7.52229 10.6722 7.65081C10.2921 8.15393 10.5929 8.90862 11.2218 9.0262C11.6073 9.09729 12.0065 8.88401 12.1733 8.5176C12.269 8.30979 12.2636 7.99534 12.1597 7.78752C12.0749 7.61799 11.93 7.47034 11.7522 7.3801C11.621 7.31174 11.2601 7.28167 11.1124 7.32815ZM11.5144 7.91877C11.7687 8.05002 11.6647 8.44924 11.3776 8.44924C11.0933 8.44924 10.9784 8.07463 11.2218 7.92698C11.3257 7.86409 11.405 7.86135 11.5144 7.91877Z" fill="#E6E6E6"/>
</g>
<defs>
<clipPath id="clip0_250_2279">
<rect width="14" height="14" fill="white"/>
</clipPath>
</defs>
</svg>
