<svg width="30" height="18" viewBox="0 0 30 18" fill="none" xmlns="http://www.w3.org/2000/svg">
<path d="M15.1811 18C19.521 18 17.9736 15.3624 18.3085 14.604C18.3035 14.0376 18.2985 13.4928 18.3185 13.1616C18.5935 13.236 19.2423 13.5516 20.5823 14.802C22.651 16.806 23.1797 18 24.851 18H27.9272C28.9022 18 29.4097 17.6124 29.6634 17.2872C29.9084 16.9728 30.1484 16.4208 29.8859 15.5616C29.1997 13.4928 25.1972 9.9204 24.9485 9.5436C24.986 9.474 25.046 9.3816 25.0772 9.3336H25.0747C25.8647 8.3316 28.8797 3.9948 29.3234 2.2596C29.3234 2.2596 29.3259 2.2536 29.3259 2.25C29.5659 1.458 29.3459 0.9444 29.1184 0.654C28.7759 0.2196 28.2309 0 27.4947 0H24.4185C23.3885 0 22.6073 0.498 22.2123 1.4064C21.551 3.0204 19.6935 6.3396 18.301 7.5144C18.2585 5.85 18.2873 4.5792 18.3098 3.6348C18.3548 1.7928 18.4998 0 16.5086 0H11.6736C10.4261 0 9.2324 1.308 10.5249 2.8608C11.6549 4.2216 10.9311 4.98 11.1749 8.7552C10.2249 7.7772 8.53491 5.136 7.33992 1.7604C7.00492 0.8472 6.49743 0.00119991 5.06869 0.00119991H1.99248C0.744992 0.00119991 0 0.654 0 1.7472C0 4.2024 5.66119 18 15.1811 18ZM5.06869 1.8012C5.33994 1.8012 5.36744 1.8012 5.56869 2.3496C6.79243 5.8092 9.5374 10.9284 11.5424 10.9284C13.0486 10.9284 13.0486 9.4464 13.0486 8.8884L13.0474 4.446C12.9649 2.976 12.4074 2.244 12.0411 1.8L16.4261 1.8048C16.4286 1.8252 16.4011 6.7188 16.4386 7.9044C16.4386 9.588 17.8311 10.5528 20.0048 8.4408C22.2985 5.9556 23.8847 2.2404 23.9485 2.0892C24.0422 1.8732 24.1235 1.8 24.4185 1.8H27.4947H27.5072C27.5059 1.8036 27.5059 1.8072 27.5047 1.8108C27.2235 3.0708 24.4472 7.086 23.5185 8.3328C23.5035 8.352 23.4897 8.3724 23.476 8.3928C23.0672 9.0336 22.7348 9.7416 23.5322 10.7376C23.6047 10.8216 23.7947 11.0184 24.0697 11.292C24.9247 12.1392 27.8572 15.036 28.1172 16.188C27.9447 16.2144 27.7572 16.1952 24.851 16.2012C24.2322 16.2012 23.7485 15.3132 21.9023 13.5252C20.2423 11.9748 19.1648 11.3412 18.1835 11.3412C16.2786 11.3412 16.4173 12.8256 16.4348 14.6208C16.4411 16.5672 16.4286 15.9516 16.4423 16.074C16.3311 16.116 16.0123 16.2 15.1811 16.2C7.24992 16.2 2.08498 4.1148 1.88623 1.8048C1.95498 1.7988 2.90122 1.8024 5.06869 1.8012Z" fill="#F95D04"/>
</svg>
