<svg width="29" height="28" viewBox="0 0 29 28" fill="none" xmlns="http://www.w3.org/2000/svg">
<path d="M14.5 7.68628C13.2067 7.68628 11.9424 8.05657 10.867 8.75033C9.79164 9.44409 8.95349 10.4302 8.45855 11.5838C7.96361 12.7375 7.83412 14.007 8.08643 15.2317C8.33875 16.4565 8.96155 17.5815 9.87608 18.4645C10.7906 19.3475 11.9558 19.9488 13.2243 20.1924C14.4927 20.436 15.8076 20.311 17.0025 19.8331C18.1973 19.3553 19.2186 18.546 19.9372 17.5077C20.6557 16.4694 21.0392 15.2487 21.0392 14C21.037 12.3262 20.3473 10.7215 19.1214 9.53793C17.8956 8.35435 16.2336 7.68845 14.5 7.68628ZM14.5 18.6667C13.5441 18.6667 12.6096 18.393 11.8147 17.8802C11.0199 17.3674 10.4004 16.6386 10.0346 15.7859C9.66876 14.9331 9.57304 13.9948 9.75954 13.0896C9.94603 12.1843 10.4064 11.3528 11.0823 10.7002C11.7583 10.0475 12.6195 9.60307 13.5571 9.423C14.4946 9.24294 15.4665 9.33535 16.3496 9.68856C17.2328 10.0418 17.9877 10.6399 18.5188 11.4073C19.0499 12.1748 19.3333 13.077 19.3333 14C19.3333 15.2377 18.8241 16.4247 17.9177 17.2998C17.0113 18.175 15.7819 18.6667 14.5 18.6667ZM21.3235 0H7.67647C5.64124 0.00217976 3.69001 0.78376 2.25088 2.17326C0.811751 3.56277 0.00225761 5.44671 0 7.41177V20.5882C0.00225761 22.5533 0.811751 24.4372 2.25088 25.8267C3.69001 27.2162 5.64124 27.9978 7.67647 28H21.3235C23.3588 27.9978 25.31 27.2162 26.7491 25.8267C28.1882 24.4372 28.9977 22.5533 29 20.5882V7.41177C28.9977 5.44671 28.1882 3.56277 26.7491 2.17326C25.31 0.78376 23.3588 0.00217976 21.3235 0ZM27.2941 20.5882C27.2941 22.1171 26.6651 23.5834 25.5454 24.6645C24.4257 25.7456 22.907 26.3529 21.3235 26.3529H7.67647C6.09297 26.3529 4.57433 25.7456 3.45463 24.6645C2.33492 23.5834 1.70588 22.1171 1.70588 20.5882V7.41177C1.70588 5.88287 2.33492 4.41659 3.45463 3.3355C4.57433 2.25441 6.09297 1.64706 7.67647 1.64706H21.3235C22.907 1.64706 24.4257 2.25441 25.5454 3.3355C26.6651 4.41659 27.2941 5.88287 27.2941 7.41177V20.5882ZM23.3137 6.86275C23.3137 7.13421 23.2304 7.39958 23.0742 7.62529C22.9179 7.85101 22.6959 8.02693 22.4362 8.13082C22.1764 8.2347 21.8906 8.26188 21.6148 8.20892C21.3391 8.15596 21.0858 8.02524 20.887 7.83328C20.6881 7.64133 20.5528 7.39677 20.4979 7.13052C20.4431 6.86427 20.4712 6.58829 20.5788 6.33749C20.6864 6.08669 20.8686 5.87233 21.1024 5.72151C21.3362 5.57069 21.611 5.4902 21.8922 5.4902C22.2692 5.4902 22.6308 5.6348 22.8974 5.89221C23.164 6.14961 23.3137 6.49872 23.3137 6.86275Z" fill="#E6E6E6"/>
</svg>
