<?xml version="1.0" encoding="UTF-8"?>
<!DOCTYPE svg PUBLIC "-//W3C//DTD SVG 1.1//EN" "http://www.w3.org/Graphics/SVG/1.1/DTD/svg11.dtd">
<!-- Creator: CorelDRAW -->
<svg xmlns="http://www.w3.org/2000/svg" xml:space="preserve" width="50px" height="50px" version="1.1" style="shape-rendering:geometricPrecision; text-rendering:geometricPrecision; image-rendering:optimizeQuality; fill-rule:evenodd; clip-rule:evenodd"
viewBox="0 0 456000 456000"
 xmlns:xlink="http://www.w3.org/1999/xlink"
 xmlns:xodm="http://www.corel.com/coreldraw/odm/2003">
 <defs>
  <style type="text/css">
   <![CDATA[
    .fil0 {fill:none}
    .fil1 {fill:#484B52}
   ]]>
  </style>
 </defs>
 <g id="Слой_x0020_1">
  <metadata id="CorelCorpID_0Corel-Layer"/>
  <rect class="fil0" width="456000" height="456000"/>
  <path class="fil1" d="M229000 450000l-1000 -1000 0 1000 0 -2000 -224000 -327000 224000 -114000 0 -1000 0 1000 1000 -1000 0 1000 223000 114000 -223000 327000 0 2000zm1000 -300000l-166000 -37000 28000 27000c0,0 122000,-9000 138000,77000 8000,-87000 141000,-77000 141000,-77000l27000 -27000 -168000 37000zm-111000 3000c-11000,-1000 -19000,-1000 -19000,-1000l12000 12000 7000 -11000zm0 18000l11000 -16000c3000,1000 7000,1000 10000,2000l-13000 21000 -8000 -7000zm95000 48000c2000,4000 3000,9000 4000,13000l-23000 33000c0,-4000 -1000,-9000 -2000,-15000l21000 -31000zm-18000 63000l0 -1000 0 21000 26000 -39000c0,-5000 0,-11000 -1000,-17000l-25000 36000zm27000 -2000l-27000 40000 0 20000 27000 -40000 0 -20000zm-27000 98000l0 -20000 27000 -40000 0 20000 -27000 40000zm6000 8000l9000 9000 12000 -18000 0 -21000 -21000 30000zm21000 20000l-5000 -5000 5000 -6000 0 11000zm-13000 -198000c-2000,-3000 -4000,-7000 -7000,-10000l-18000 28000c2000,4000 3000,8000 5000,12000l20000 -30000zm-22000 -27000c3000,2000 6000,5000 9000,8000l-18000 27000c-2000,-3000 -4000,-6000 -7000,-9000 0,-1000 0,-1000 -1000,-1000l17000 -25000zm-8000 -6000c-3000,-2000 -6000,-4000 -9000,-6000l-15000 23000c2000,2000 5000,4000 8000,6000l16000 -23000zm-29000 -15000c3000,2000 7000,3000 11000,5000l-15000 21000c-4000,-2000 -8000,-3000 -11000,-4000l15000 -22000zm209000 -8000c0,0 -8000,0 -20000,1000l7000 11000 13000 -12000zm-31000 3000l11000 16000 -7000 7000 -14000 -21000c4000,-1000 7000,-1000 10000,-2000zm-88000 77000c2000,-4000 3000,-9000 4000,-13000l21000 31000c-1000,6000 -2000,11000 -2000,15000l-23000 -33000zm23000 49000l-1000 1000 -24000 -36000c-1000,6000 -2000,12000 -2000,17000l27000 39000 0 -21000zm0 39000l-27000 -40000 0 20000 27000 40000 0 -20000zm0 38000l0 20000 -27000 -40000 0 -20000 27000 40000zm-16000 37000l9000 -9000 -20000 -30000 0 21000 11000 18000zm-7000 6000l-4000 5000 0 -11000 4000 6000zm15000 -203000c-2000,3000 -4000,7000 -6000,10000l20000 30000c1000,-4000 3000,-8000 5000,-12000l-19000 -28000zm6000 -9000c3000,-3000 6000,-6000 9000,-8000l17000 25000c0,0 0,0 -1000,1000 -2000,3000 -5000,6000 -7000,9000l-18000 -27000zm26000 -20000c-3000,2000 -6000,4000 -9000,6000l16000 23000c3000,-2000 6000,-4000 9000,-6000l-16000 -23000zm10000 -4000c3000,-2000 7000,-3000 11000,-5000l14000 22000c-3000,1000 -7000,2000 -11000,4000l-14000 -21000z"/>
 </g>
</svg>
